<?xml version="1.0" encoding="us-ascii" standalone="no"?><svg xmlns="http://www.w3.org/2000/svg" xmlns:xlink="http://www.w3.org/1999/xlink" contentStyleType="text/css" height="863px" preserveAspectRatio="none" style="width:1491px;height:863px;background:#FFFFFF;" version="1.1" viewBox="0 0 1491 863" width="1491px" zoomAndPan="magnify"><defs/><g><!--class Restoran--><g id="elem_Restoran"><rect codeLine="3" fill="#F1F1F1" height="153.6563" id="Restoran" rx="2.5" ry="2.5" style="stroke:#181818;stroke-width:0.5;" width="202" x="92.5" y="24.5"/><ellipse cx="160.25" cy="40.5" fill="#ADD1B2" rx="11" ry="11" style="stroke:#181818;stroke-width:1.0;"/><path d="M163.0156,36.375 Q163.1719,36.1563 163.3594,36.0469 Q163.5469,35.9375 163.7656,35.9375 Q164.1406,35.9375 164.375,36.2031 Q164.6094,36.4531 164.6094,37.0625 L164.6094,38.5156 Q164.6094,39.125 164.375,39.3906 Q164.1406,39.6563 163.7656,39.6563 Q163.4219,39.6563 163.2188,39.4531 Q163.0156,39.2656 162.9063,38.75 Q162.8594,38.3906 162.6719,38.2031 Q162.3438,37.8281 161.7344,37.6094 Q161.125,37.3906 160.5,37.3906 Q159.7344,37.3906 159.0938,37.7188 Q158.4688,38.0469 157.9688,38.7969 Q157.4844,39.5469 157.4844,40.5781 L157.4844,41.6719 Q157.4844,42.9063 158.375,43.7344 Q159.2656,44.5469 160.8594,44.5469 Q161.7969,44.5469 162.4531,44.2969 Q162.8438,44.1406 163.2656,43.7031 Q163.5313,43.4375 163.6719,43.3594 Q163.8281,43.2813 164.0313,43.2813 Q164.3594,43.2813 164.6094,43.5469 Q164.875,43.7969 164.875,44.1406 Q164.875,44.4844 164.5313,44.8906 Q164.0313,45.4688 163.2344,45.7969 Q162.1563,46.25 160.8594,46.25 Q159.3438,46.25 158.1406,45.625 Q157.1563,45.125 156.4688,44.0625 Q155.7813,42.9844 155.7813,41.7031 L155.7813,40.5469 Q155.7813,39.2188 156.3906,38.0781 Q157.0156,36.9219 158.1094,36.3125 Q159.2031,35.6875 160.4375,35.6875 Q161.1719,35.6875 161.8125,35.8594 Q162.4688,36.0156 163.0156,36.375 Z " fill="#000000"/><text fill="#000000" font-family="sans-serif" font-size="14" lengthAdjust="spacing" textLength="58" x="180.75" y="46.2285">Restoran</text><line style="stroke:#181818;stroke-width:0.5;" x1="93.5" x2="293.5" y1="56.5" y2="56.5"/><rect fill="none" height="6" style="stroke:#C82930;stroke-width:1.0;" width="6" x="100.5" y="67.8047"/><text fill="#000000" font-family="sans-serif" font-size="14" lengthAdjust="spacing" textLength="150" x="112.5" y="75.0332">naziv_restorana : String</text><rect fill="none" height="6" style="stroke:#C82930;stroke-width:1.0;" width="6" x="100.5" y="85.4141"/><text fill="#000000" font-family="sans-serif" font-size="14" lengthAdjust="spacing" textLength="149" x="112.5" y="92.6426">lista_stolova : List&lt;Sto&gt;</text><rect fill="none" height="6" style="stroke:#C82930;stroke-width:1.0;" width="6" x="100.5" y="103.0234"/><text fill="#000000" font-family="sans-serif" font-size="14" lengthAdjust="spacing" textLength="176" x="112.5" y="110.252">lista_osoblja : List&lt;Osoblje&gt;</text><line style="stroke:#181818;stroke-width:0.5;" x1="93.5" x2="293.5" y1="117.3281" y2="117.3281"/><ellipse cx="103.5" cy="131.6328" fill="#84BE84" rx="3" ry="3" style="stroke:#038048;stroke-width:1.0;"/><text fill="#000000" font-family="sans-serif" font-size="14" lengthAdjust="spacing" textLength="104" x="112.5" y="135.8613">dodajSto() : void</text><ellipse cx="103.5" cy="149.2422" fill="#84BE84" rx="3" ry="3" style="stroke:#038048;stroke-width:1.0;"/><text fill="#000000" font-family="sans-serif" font-size="14" lengthAdjust="spacing" textLength="131" x="112.5" y="153.4707">dodajOsoblje() : void</text><ellipse cx="103.5" cy="166.8516" fill="#84BE84" rx="3" ry="3" style="stroke:#038048;stroke-width:1.0;"/><text fill="#000000" font-family="sans-serif" font-size="14" lengthAdjust="spacing" textLength="155" x="112.5" y="171.0801">generi&#353;iIzve&#353;taj() : String</text></g><!--class Sto--><g id="elem_Sto"><rect codeLine="13" fill="#F1F1F1" height="100.8281" id="Sto" rx="2.5" ry="2.5" style="stroke:#181818;stroke-width:0.5;" width="286" x="50.5" y="300.5"/><ellipse cx="178.75" cy="316.5" fill="#ADD1B2" rx="11" ry="11" style="stroke:#181818;stroke-width:1.0;"/><path d="M181.5156,312.375 Q181.6719,312.1563 181.8594,312.0469 Q182.0469,311.9375 182.2656,311.9375 Q182.6406,311.9375 182.875,312.2031 Q183.1094,312.4531 183.1094,313.0625 L183.1094,314.5156 Q183.1094,315.125 182.875,315.3906 Q182.6406,315.6563 182.2656,315.6563 Q181.9219,315.6563 181.7188,315.4531 Q181.5156,315.2656 181.4063,314.75 Q181.3594,314.3906 181.1719,314.2031 Q180.8438,313.8281 180.2344,313.6094 Q179.625,313.3906 179,313.3906 Q178.2344,313.3906 177.5938,313.7188 Q176.9688,314.0469 176.4688,314.7969 Q175.9844,315.5469 175.9844,316.5781 L175.9844,317.6719 Q175.9844,318.9063 176.875,319.7344 Q177.7656,320.5469 179.3594,320.5469 Q180.2969,320.5469 180.9531,320.2969 Q181.3438,320.1406 181.7656,319.7031 Q182.0313,319.4375 182.1719,319.3594 Q182.3281,319.2813 182.5313,319.2813 Q182.8594,319.2813 183.1094,319.5469 Q183.375,319.7969 183.375,320.1406 Q183.375,320.4844 183.0313,320.8906 Q182.5313,321.4688 181.7344,321.7969 Q180.6563,322.25 179.3594,322.25 Q177.8438,322.25 176.6406,321.625 Q175.6563,321.125 174.9688,320.0625 Q174.2813,318.9844 174.2813,317.7031 L174.2813,316.5469 Q174.2813,315.2188 174.8906,314.0781 Q175.5156,312.9219 176.6094,312.3125 Q177.7031,311.6875 178.9375,311.6875 Q179.6719,311.6875 180.3125,311.8594 Q180.9688,312.0156 181.5156,312.375 Z " fill="#000000"/><text fill="#000000" font-family="sans-serif" font-size="14" lengthAdjust="spacing" textLength="21" x="199.25" y="322.2285">Sto</text><line style="stroke:#181818;stroke-width:0.5;" x1="51.5" x2="335.5" y1="332.5" y2="332.5"/><rect fill="none" height="6" style="stroke:#C82930;stroke-width:1.0;" width="6" x="58.5" y="343.8047"/><text fill="#000000" font-family="sans-serif" font-size="14" lengthAdjust="spacing" textLength="89" x="70.5" y="351.0332">broj_stola : int</text><rect fill="none" height="6" style="stroke:#C82930;stroke-width:1.0;" width="6" x="58.5" y="361.4141"/><text fill="#000000" font-family="sans-serif" font-size="14" lengthAdjust="spacing" textLength="87" x="70.5" y="368.6426">status : String</text><line style="stroke:#181818;stroke-width:0.5;" x1="51.5" x2="335.5" y1="375.7188" y2="375.7188"/><ellipse cx="61.5" cy="390.0234" fill="#84BE84" rx="3" ry="3" style="stroke:#038048;stroke-width:1.0;"/><text fill="#000000" font-family="sans-serif" font-size="14" lengthAdjust="spacing" textLength="260" x="70.5" y="394.252">promeniStatus(novi_status : String) : void</text></g><!--class Narud?bina--><g id="elem_Narud&#382;bina"><rect codeLine="20" fill="#F1F1F1" height="153.6563" id="Narud&#382;bina" rx="2.5" ry="2.5" style="stroke:#181818;stroke-width:0.5;" width="193" x="97" y="506"/><ellipse cx="153.75" cy="522" fill="#ADD1B2" rx="11" ry="11" style="stroke:#181818;stroke-width:1.0;"/><path d="M156.5156,517.875 Q156.6719,517.6563 156.8594,517.5469 Q157.0469,517.4375 157.2656,517.4375 Q157.6406,517.4375 157.875,517.7031 Q158.1094,517.9531 158.1094,518.5625 L158.1094,520.0156 Q158.1094,520.625 157.875,520.8906 Q157.6406,521.1563 157.2656,521.1563 Q156.9219,521.1563 156.7188,520.9531 Q156.5156,520.7656 156.4063,520.25 Q156.3594,519.8906 156.1719,519.7031 Q155.8438,519.3281 155.2344,519.1094 Q154.625,518.8906 154,518.8906 Q153.2344,518.8906 152.5938,519.2188 Q151.9688,519.5469 151.4688,520.2969 Q150.9844,521.0469 150.9844,522.0781 L150.9844,523.1719 Q150.9844,524.4063 151.875,525.2344 Q152.7656,526.0469 154.3594,526.0469 Q155.2969,526.0469 155.9531,525.7969 Q156.3438,525.6406 156.7656,525.2031 Q157.0313,524.9375 157.1719,524.8594 Q157.3281,524.7813 157.5313,524.7813 Q157.8594,524.7813 158.1094,525.0469 Q158.375,525.2969 158.375,525.6406 Q158.375,525.9844 158.0313,526.3906 Q157.5313,526.9688 156.7344,527.2969 Q155.6563,527.75 154.3594,527.75 Q152.8438,527.75 151.6406,527.125 Q150.6563,526.625 149.9688,525.5625 Q149.2813,524.4844 149.2813,523.2031 L149.2813,522.0469 Q149.2813,520.7188 149.8906,519.5781 Q150.5156,518.4219 151.6094,517.8125 Q152.7031,517.1875 153.9375,517.1875 Q154.6719,517.1875 155.3125,517.3594 Q155.9688,517.5156 156.5156,517.875 Z " fill="#000000"/><text fill="#000000" font-family="sans-serif" font-size="14" lengthAdjust="spacing" textLength="71" x="174.25" y="527.7285">Narud&#382;bina</text><line style="stroke:#181818;stroke-width:0.5;" x1="98" x2="289" y1="538" y2="538"/><rect fill="none" height="6" style="stroke:#C82930;stroke-width:1.0;" width="6" x="105" y="549.3047"/><text fill="#000000" font-family="sans-serif" font-size="14" lengthAdjust="spacing" textLength="129" x="117" y="556.5332">broj_narud&#382;bine : int</text><rect fill="none" height="6" style="stroke:#C82930;stroke-width:1.0;" width="6" x="105" y="566.9141"/><text fill="#000000" font-family="sans-serif" font-size="14" lengthAdjust="spacing" textLength="130" x="117" y="574.1426">lista_jela : List&lt;Jelo&gt;</text><rect fill="none" height="6" style="stroke:#C82930;stroke-width:1.0;" width="6" x="105" y="584.5234"/><text fill="#000000" font-family="sans-serif" font-size="14" lengthAdjust="spacing" textLength="141" x="117" y="591.752">ukupna_cena : double</text><line style="stroke:#181818;stroke-width:0.5;" x1="98" x2="289" y1="598.8281" y2="598.8281"/><ellipse cx="108" cy="613.1328" fill="#84BE84" rx="3" ry="3" style="stroke:#038048;stroke-width:1.0;"/><text fill="#000000" font-family="sans-serif" font-size="14" lengthAdjust="spacing" textLength="167" x="117" y="617.3613">dodajJelo(jelo : Jelo) : void</text><ellipse cx="108" cy="630.7422" fill="#84BE84" rx="3" ry="3" style="stroke:#038048;stroke-width:1.0;"/><text fill="#000000" font-family="sans-serif" font-size="14" lengthAdjust="spacing" textLength="155" x="117" y="634.9707">izra&#269;unajCenu() : double</text><ellipse cx="108" cy="648.3516" fill="#84BE84" rx="3" ry="3" style="stroke:#038048;stroke-width:1.0;"/><text fill="#000000" font-family="sans-serif" font-size="14" lengthAdjust="spacing" textLength="155" x="117" y="652.5801">zavr&#353;iNarud&#382;binu() : void</text></g><!--class Jelo--><g id="elem_Jelo"><rect codeLine="30" fill="#F1F1F1" height="100.8281" id="Jelo" rx="2.5" ry="2.5" style="stroke:#181818;stroke-width:0.5;" width="169" x="7" y="746.5"/><ellipse cx="74.75" cy="762.5" fill="#ADD1B2" rx="11" ry="11" style="stroke:#181818;stroke-width:1.0;"/><path d="M77.5156,758.375 Q77.6719,758.1563 77.8594,758.0469 Q78.0469,757.9375 78.2656,757.9375 Q78.6406,757.9375 78.875,758.2031 Q79.1094,758.4531 79.1094,759.0625 L79.1094,760.5156 Q79.1094,761.125 78.875,761.3906 Q78.6406,761.6563 78.2656,761.6563 Q77.9219,761.6563 77.7188,761.4531 Q77.5156,761.2656 77.4063,760.75 Q77.3594,760.3906 77.1719,760.2031 Q76.8438,759.8281 76.2344,759.6094 Q75.625,759.3906 75,759.3906 Q74.2344,759.3906 73.5938,759.7188 Q72.9688,760.0469 72.4688,760.7969 Q71.9844,761.5469 71.9844,762.5781 L71.9844,763.6719 Q71.9844,764.9063 72.875,765.7344 Q73.7656,766.5469 75.3594,766.5469 Q76.2969,766.5469 76.9531,766.2969 Q77.3438,766.1406 77.7656,765.7031 Q78.0313,765.4375 78.1719,765.3594 Q78.3281,765.2813 78.5313,765.2813 Q78.8594,765.2813 79.1094,765.5469 Q79.375,765.7969 79.375,766.1406 Q79.375,766.4844 79.0313,766.8906 Q78.5313,767.4688 77.7344,767.7969 Q76.6563,768.25 75.3594,768.25 Q73.8438,768.25 72.6406,767.625 Q71.6563,767.125 70.9688,766.0625 Q70.2813,764.9844 70.2813,763.7031 L70.2813,762.5469 Q70.2813,761.2188 70.8906,760.0781 Q71.5156,758.9219 72.6094,758.3125 Q73.7031,757.6875 74.9375,757.6875 Q75.6719,757.6875 76.3125,757.8594 Q76.9688,758.0156 77.5156,758.375 Z " fill="#000000"/><text fill="#000000" font-family="sans-serif" font-size="14" lengthAdjust="spacing" textLength="25" x="95.25" y="768.2285">Jelo</text><line style="stroke:#181818;stroke-width:0.5;" x1="8" x2="175" y1="778.5" y2="778.5"/><rect fill="none" height="6" style="stroke:#C82930;stroke-width:1.0;" width="6" x="15" y="789.8047"/><text fill="#000000" font-family="sans-serif" font-size="14" lengthAdjust="spacing" textLength="81" x="27" y="797.0332">naziv : String</text><rect fill="none" height="6" style="stroke:#C82930;stroke-width:1.0;" width="6" x="15" y="807.4141"/><text fill="#000000" font-family="sans-serif" font-size="14" lengthAdjust="spacing" textLength="86" x="27" y="814.6426">cena : double</text><line style="stroke:#181818;stroke-width:0.5;" x1="8" x2="175" y1="821.7188" y2="821.7188"/><ellipse cx="18" cy="836.0234" fill="#84BE84" rx="3" ry="3" style="stroke:#038048;stroke-width:1.0;"/><text fill="#000000" font-family="sans-serif" font-size="14" lengthAdjust="spacing" textLength="143" x="27" y="840.252">prika&#382;iDetalje() : String</text></g><!--class Ra?un--><g id="elem_Ra&#269;un"><rect codeLine="37" fill="#F1F1F1" height="118.4375" id="Ra&#269;un" rx="2.5" ry="2.5" style="stroke:#181818;stroke-width:0.5;" width="168" x="211.5" y="738"/><ellipse cx="270.75" cy="754" fill="#ADD1B2" rx="11" ry="11" style="stroke:#181818;stroke-width:1.0;"/><path d="M273.5156,749.875 Q273.6719,749.6563 273.8594,749.5469 Q274.0469,749.4375 274.2656,749.4375 Q274.6406,749.4375 274.875,749.7031 Q275.1094,749.9531 275.1094,750.5625 L275.1094,752.0156 Q275.1094,752.625 274.875,752.8906 Q274.6406,753.1563 274.2656,753.1563 Q273.9219,753.1563 273.7188,752.9531 Q273.5156,752.7656 273.4063,752.25 Q273.3594,751.8906 273.1719,751.7031 Q272.8438,751.3281 272.2344,751.1094 Q271.625,750.8906 271,750.8906 Q270.2344,750.8906 269.5938,751.2188 Q268.9688,751.5469 268.4688,752.2969 Q267.9844,753.0469 267.9844,754.0781 L267.9844,755.1719 Q267.9844,756.4063 268.875,757.2344 Q269.7656,758.0469 271.3594,758.0469 Q272.2969,758.0469 272.9531,757.7969 Q273.3438,757.6406 273.7656,757.2031 Q274.0313,756.9375 274.1719,756.8594 Q274.3281,756.7813 274.5313,756.7813 Q274.8594,756.7813 275.1094,757.0469 Q275.375,757.2969 275.375,757.6406 Q275.375,757.9844 275.0313,758.3906 Q274.5313,758.9688 273.7344,759.2969 Q272.6563,759.75 271.3594,759.75 Q269.8438,759.75 268.6406,759.125 Q267.6563,758.625 266.9688,757.5625 Q266.2813,756.4844 266.2813,755.2031 L266.2813,754.0469 Q266.2813,752.7188 266.8906,751.5781 Q267.5156,750.4219 268.6094,749.8125 Q269.7031,749.1875 270.9375,749.1875 Q271.6719,749.1875 272.3125,749.3594 Q272.9688,749.5156 273.5156,749.875 Z " fill="#000000"/><text fill="#000000" font-family="sans-serif" font-size="14" lengthAdjust="spacing" textLength="41" x="291.25" y="759.7285">Ra&#269;un</text><line style="stroke:#181818;stroke-width:0.5;" x1="212.5" x2="378.5" y1="770" y2="770"/><rect fill="none" height="6" style="stroke:#C82930;stroke-width:1.0;" width="6" x="219.5" y="781.3047"/><text fill="#000000" font-family="sans-serif" font-size="14" lengthAdjust="spacing" textLength="103" x="231.5" y="788.5332">broj_ra&#269;una : int</text><rect fill="none" height="6" style="stroke:#C82930;stroke-width:1.0;" width="6" x="219.5" y="798.9141"/><text fill="#000000" font-family="sans-serif" font-size="14" lengthAdjust="spacing" textLength="142" x="231.5" y="806.1426">ukupan_iznos : double</text><rect fill="none" height="6" style="stroke:#C82930;stroke-width:1.0;" width="6" x="219.5" y="816.5234"/><text fill="#000000" font-family="sans-serif" font-size="14" lengthAdjust="spacing" textLength="81" x="231.5" y="823.752">datum : Date</text><line style="stroke:#181818;stroke-width:0.5;" x1="212.5" x2="378.5" y1="830.8281" y2="830.8281"/><ellipse cx="222.5" cy="845.1328" fill="#84BE84" rx="3" ry="3" style="stroke:#038048;stroke-width:1.0;"/><text fill="#000000" font-family="sans-serif" font-size="14" lengthAdjust="spacing" textLength="139" x="231.5" y="849.3613">generi&#353;iRa&#269;un() : void</text></g><!--class Osoblje--><g id="elem_Osoblje"><rect codeLine="45" fill="#F1F1F1" height="188.875" id="Osoblje" rx="2.5" ry="2.5" style="stroke:#181818;stroke-width:0.5;" width="254" x="787.5" y="7"/><ellipse cx="886.25" cy="23" fill="#A9DCDF" rx="11" ry="11" style="stroke:#181818;stroke-width:1.0;"/><path d="M888.4375,24.7656 L884.2969,24.7656 L883.875,25.7969 L884.2969,25.7969 Q884.9063,25.7969 885.1719,26.0313 Q885.4375,26.2656 885.4375,26.6563 Q885.4375,27.0313 885.1719,27.2656 Q884.9063,27.5 884.2969,27.5 L882,27.5 Q881.3906,27.5 881.1406,27.2656 Q880.875,27.0313 880.875,26.6406 Q880.875,26.2656 881.1563,26.0313 Q881.4219,25.7813 882.0469,25.7969 L884.7188,19.1406 L883.6094,19.1406 Q883,19.1406 882.7344,18.9063 Q882.4688,18.6719 882.4688,18.2813 Q882.4688,17.9063 882.7344,17.6719 Q883,17.4375 883.6094,17.4375 L887.2813,17.4375 L890.6719,25.7969 Q891.2656,25.7969 891.4531,25.9375 Q891.8438,26.2031 891.8438,26.6563 Q891.8438,27.0313 891.5781,27.2656 Q891.3281,27.5 890.7188,27.5 L888.4219,27.5 Q887.8125,27.5 887.5469,27.2656 Q887.2813,27.0313 887.2813,26.6406 Q887.2813,26.2656 887.5469,26.0313 Q887.8125,25.7969 888.4219,25.7969 L888.8438,25.7969 L888.4375,24.7656 Z M887.7188,23.0625 L886.3594,19.6875 L884.9844,23.0625 L887.7188,23.0625 Z " fill="#000000"/><text fill="#000000" font-family="sans-serif" font-size="14" font-style="italic" lengthAdjust="spacing" textLength="48" x="906.75" y="28.7285">Osoblje</text><line style="stroke:#181818;stroke-width:0.5;" x1="788.5" x2="1040.5" y1="39" y2="39"/><rect fill="none" height="6" style="stroke:#C82930;stroke-width:1.0;" width="6" x="795.5" y="50.3047"/><text fill="#000000" font-family="sans-serif" font-size="14" lengthAdjust="spacing" textLength="71" x="807.5" y="57.5332">ime : String</text><rect fill="none" height="6" style="stroke:#C82930;stroke-width:1.0;" width="6" x="795.5" y="67.9141"/><text fill="#000000" font-family="sans-serif" font-size="14" lengthAdjust="spacing" textLength="95" x="807.5" y="75.1426">pozicija : String</text><rect fill="none" height="6" style="stroke:#C82930;stroke-width:1.0;" width="6" x="795.5" y="85.5234"/><text fill="#000000" font-family="sans-serif" font-size="14" lengthAdjust="spacing" textLength="86" x="807.5" y="92.752">plata : double</text><rect fill="none" height="6" style="stroke:#C82930;stroke-width:1.0;" width="6" x="795.5" y="103.1328"/><text fill="#000000" font-family="sans-serif" font-size="14" lengthAdjust="spacing" textLength="91" x="807.5" y="110.3613">smena : String</text><line style="stroke:#181818;stroke-width:0.5;" x1="788.5" x2="1040.5" y1="117.4375" y2="117.4375"/><ellipse cx="798.5" cy="131.7422" fill="#84BE84" rx="3" ry="3" style="stroke:#038048;stroke-width:1.0;"/><text fill="#000000" font-family="sans-serif" font-size="14" lengthAdjust="spacing" textLength="143" x="807.5" y="135.9707">prika&#382;iDetalje() : String</text><ellipse cx="798.5" cy="149.3516" fill="#84BE84" rx="3" ry="3" style="stroke:#038048;stroke-width:1.0;"/><text fill="#000000" font-family="sans-serif" font-size="14" lengthAdjust="spacing" textLength="210" x="807.5" y="153.5801">dodajBonus(iznos : double) : void</text><ellipse cx="798.5" cy="166.9609" fill="#84BE84" rx="3" ry="3" style="stroke:#038048;stroke-width:1.0;"/><text fill="#000000" font-family="sans-serif" font-size="14" lengthAdjust="spacing" textLength="208" x="807.5" y="171.1895">umanjiPlatu(iznos : double) : void</text><ellipse cx="798.5" cy="184.5703" fill="#84BE84" rx="3" ry="3" style="stroke:#038048;stroke-width:1.0;"/><text fill="#000000" font-family="sans-serif" font-size="14" lengthAdjust="spacing" textLength="228" x="807.5" y="188.7988">postaviSmenu(smena : String) : void</text></g><!--class Konobar--><g id="elem_Konobar"><rect codeLine="57" fill="#F1F1F1" height="83.2188" id="Konobar" rx="2.5" ry="2.5" style="stroke:#181818;stroke-width:0.5;" width="333" x="372" y="309.5"/><ellipse cx="507.25" cy="325.5" fill="#ADD1B2" rx="11" ry="11" style="stroke:#181818;stroke-width:1.0;"/><path d="M510.0156,321.375 Q510.1719,321.1563 510.3594,321.0469 Q510.5469,320.9375 510.7656,320.9375 Q511.1406,320.9375 511.375,321.2031 Q511.6094,321.4531 511.6094,322.0625 L511.6094,323.5156 Q511.6094,324.125 511.375,324.3906 Q511.1406,324.6563 510.7656,324.6563 Q510.4219,324.6563 510.2188,324.4531 Q510.0156,324.2656 509.9063,323.75 Q509.8594,323.3906 509.6719,323.2031 Q509.3438,322.8281 508.7344,322.6094 Q508.125,322.3906 507.5,322.3906 Q506.7344,322.3906 506.0938,322.7188 Q505.4688,323.0469 504.9688,323.7969 Q504.4844,324.5469 504.4844,325.5781 L504.4844,326.6719 Q504.4844,327.9063 505.375,328.7344 Q506.2656,329.5469 507.8594,329.5469 Q508.7969,329.5469 509.4531,329.2969 Q509.8438,329.1406 510.2656,328.7031 Q510.5313,328.4375 510.6719,328.3594 Q510.8281,328.2813 511.0313,328.2813 Q511.3594,328.2813 511.6094,328.5469 Q511.875,328.7969 511.875,329.1406 Q511.875,329.4844 511.5313,329.8906 Q511.0313,330.4688 510.2344,330.7969 Q509.1563,331.25 507.8594,331.25 Q506.3438,331.25 505.1406,330.625 Q504.1563,330.125 503.4688,329.0625 Q502.7813,327.9844 502.7813,326.7031 L502.7813,325.5469 Q502.7813,324.2188 503.3906,323.0781 Q504.0156,321.9219 505.1094,321.3125 Q506.2031,320.6875 507.4375,320.6875 Q508.1719,320.6875 508.8125,320.8594 Q509.4688,321.0156 510.0156,321.375 Z " fill="#000000"/><text fill="#000000" font-family="sans-serif" font-size="14" lengthAdjust="spacing" textLength="54" x="527.75" y="331.2285">Konobar</text><line style="stroke:#181818;stroke-width:0.5;" x1="373" x2="704" y1="341.5" y2="341.5"/><rect fill="none" height="6" style="stroke:#C82930;stroke-width:1.0;" width="6" x="380" y="352.8047"/><text fill="#000000" font-family="sans-serif" font-size="14" lengthAdjust="spacing" textLength="224" x="392" y="360.0332">lista_narud&#382;bina : List&lt;Narud&#382;bina&gt;</text><line style="stroke:#181818;stroke-width:0.5;" x1="373" x2="704" y1="367.1094" y2="367.1094"/><ellipse cx="383" cy="381.4141" fill="#84BE84" rx="3" ry="3" style="stroke:#038048;stroke-width:1.0;"/><text fill="#000000" font-family="sans-serif" font-size="14" lengthAdjust="spacing" textLength="307" x="392" y="385.6426">dodajNarud&#382;binu(narud&#382;bina : Narud&#382;bina) : void</text></g><!--class Kuvar--><g id="elem_Kuvar"><rect codeLine="62" fill="#F1F1F1" height="83.2188" id="Kuvar" rx="2.5" ry="2.5" style="stroke:#181818;stroke-width:0.5;" width="349" x="740" y="309.5"/><ellipse cx="891.75" cy="325.5" fill="#ADD1B2" rx="11" ry="11" style="stroke:#181818;stroke-width:1.0;"/><path d="M894.5156,321.375 Q894.6719,321.1563 894.8594,321.0469 Q895.0469,320.9375 895.2656,320.9375 Q895.6406,320.9375 895.875,321.2031 Q896.1094,321.4531 896.1094,322.0625 L896.1094,323.5156 Q896.1094,324.125 895.875,324.3906 Q895.6406,324.6563 895.2656,324.6563 Q894.9219,324.6563 894.7188,324.4531 Q894.5156,324.2656 894.4063,323.75 Q894.3594,323.3906 894.1719,323.2031 Q893.8438,322.8281 893.2344,322.6094 Q892.625,322.3906 892,322.3906 Q891.2344,322.3906 890.5938,322.7188 Q889.9688,323.0469 889.4688,323.7969 Q888.9844,324.5469 888.9844,325.5781 L888.9844,326.6719 Q888.9844,327.9063 889.875,328.7344 Q890.7656,329.5469 892.3594,329.5469 Q893.2969,329.5469 893.9531,329.2969 Q894.3438,329.1406 894.7656,328.7031 Q895.0313,328.4375 895.1719,328.3594 Q895.3281,328.2813 895.5313,328.2813 Q895.8594,328.2813 896.1094,328.5469 Q896.375,328.7969 896.375,329.1406 Q896.375,329.4844 896.0313,329.8906 Q895.5313,330.4688 894.7344,330.7969 Q893.6563,331.25 892.3594,331.25 Q890.8438,331.25 889.6406,330.625 Q888.6563,330.125 887.9688,329.0625 Q887.2813,327.9844 887.2813,326.7031 L887.2813,325.5469 Q887.2813,324.2188 887.8906,323.0781 Q888.5156,321.9219 889.6094,321.3125 Q890.7031,320.6875 891.9375,320.6875 Q892.6719,320.6875 893.3125,320.8594 Q893.9688,321.0156 894.5156,321.375 Z " fill="#000000"/><text fill="#000000" font-family="sans-serif" font-size="14" lengthAdjust="spacing" textLength="37" x="912.25" y="331.2285">Kuvar</text><line style="stroke:#181818;stroke-width:0.5;" x1="741" x2="1088" y1="341.5" y2="341.5"/><rect fill="none" height="6" style="stroke:#C82930;stroke-width:1.0;" width="6" x="748" y="352.8047"/><text fill="#000000" font-family="sans-serif" font-size="14" lengthAdjust="spacing" textLength="210" x="760" y="360.0332">lista_priprema : List&lt;Narud&#382;bina&gt;</text><line style="stroke:#181818;stroke-width:0.5;" x1="741" x2="1088" y1="367.1094" y2="367.1094"/><ellipse cx="751" cy="381.4141" fill="#84BE84" rx="3" ry="3" style="stroke:#038048;stroke-width:1.0;"/><text fill="#000000" font-family="sans-serif" font-size="14" lengthAdjust="spacing" textLength="323" x="760" y="385.6426">pripremiNarud&#382;binu(narud&#382;bina : Narud&#382;bina) : void</text></g><!--class Administrator--><g id="elem_Administrator"><rect codeLine="67" fill="#F1F1F1" height="153.6563" id="Administrator" rx="2.5" ry="2.5" style="stroke:#181818;stroke-width:0.5;" width="360" x="1124.5" y="274"/><ellipse cx="1258.75" cy="290" fill="#ADD1B2" rx="11" ry="11" style="stroke:#181818;stroke-width:1.0;"/><path d="M1261.5156,285.875 Q1261.6719,285.6563 1261.8594,285.5469 Q1262.0469,285.4375 1262.2656,285.4375 Q1262.6406,285.4375 1262.875,285.7031 Q1263.1094,285.9531 1263.1094,286.5625 L1263.1094,288.0156 Q1263.1094,288.625 1262.875,288.8906 Q1262.6406,289.1563 1262.2656,289.1563 Q1261.9219,289.1563 1261.7188,288.9531 Q1261.5156,288.7656 1261.4063,288.25 Q1261.3594,287.8906 1261.1719,287.7031 Q1260.8438,287.3281 1260.2344,287.1094 Q1259.625,286.8906 1259,286.8906 Q1258.2344,286.8906 1257.5938,287.2188 Q1256.9688,287.5469 1256.4688,288.2969 Q1255.9844,289.0469 1255.9844,290.0781 L1255.9844,291.1719 Q1255.9844,292.4063 1256.875,293.2344 Q1257.7656,294.0469 1259.3594,294.0469 Q1260.2969,294.0469 1260.9531,293.7969 Q1261.3438,293.6406 1261.7656,293.2031 Q1262.0313,292.9375 1262.1719,292.8594 Q1262.3281,292.7813 1262.5313,292.7813 Q1262.8594,292.7813 1263.1094,293.0469 Q1263.375,293.2969 1263.375,293.6406 Q1263.375,293.9844 1263.0313,294.3906 Q1262.5313,294.9688 1261.7344,295.2969 Q1260.6563,295.75 1259.3594,295.75 Q1257.8438,295.75 1256.6406,295.125 Q1255.6563,294.625 1254.9688,293.5625 Q1254.2813,292.4844 1254.2813,291.2031 L1254.2813,290.0469 Q1254.2813,288.7188 1254.8906,287.5781 Q1255.5156,286.4219 1256.6094,285.8125 Q1257.7031,285.1875 1258.9375,285.1875 Q1259.6719,285.1875 1260.3125,285.3594 Q1260.9688,285.5156 1261.5156,285.875 Z " fill="#000000"/><text fill="#000000" font-family="sans-serif" font-size="14" lengthAdjust="spacing" textLength="83" x="1279.25" y="295.7285">Administrator</text><line style="stroke:#181818;stroke-width:0.5;" x1="1125.5" x2="1483.5" y1="306" y2="306"/><rect fill="none" height="6" style="stroke:#C82930;stroke-width:1.0;" width="6" x="1132.5" y="317.3047"/><text fill="#000000" font-family="sans-serif" font-size="14" lengthAdjust="spacing" textLength="198" x="1144.5" y="324.5332">lista_zaposlenih : List&lt;Osoblje&gt;</text><line style="stroke:#181818;stroke-width:0.5;" x1="1125.5" x2="1483.5" y1="331.6094" y2="331.6094"/><ellipse cx="1135.5" cy="345.9141" fill="#84BE84" rx="3" ry="3" style="stroke:#038048;stroke-width:1.0;"/><text fill="#000000" font-family="sans-serif" font-size="14" lengthAdjust="spacing" textLength="262" x="1144.5" y="350.1426">dodajZaposlenog(osoblje : Osoblje) : void</text><ellipse cx="1135.5" cy="363.5234" fill="#84BE84" rx="3" ry="3" style="stroke:#038048;stroke-width:1.0;"/><text fill="#000000" font-family="sans-serif" font-size="14" lengthAdjust="spacing" textLength="269" x="1144.5" y="367.752">otpustiZaposlenog(osoblje : Osoblje) : void</text><ellipse cx="1135.5" cy="381.1328" fill="#84BE84" rx="3" ry="3" style="stroke:#038048;stroke-width:1.0;"/><text fill="#000000" font-family="sans-serif" font-size="14" lengthAdjust="spacing" textLength="334" x="1144.5" y="385.3613">dodeliSmenu(osoblje : Osoblje, smena : String) : void</text><ellipse cx="1135.5" cy="398.7422" fill="#84BE84" rx="3" ry="3" style="stroke:#038048;stroke-width:1.0;"/><text fill="#000000" font-family="sans-serif" font-size="14" lengthAdjust="spacing" textLength="323" x="1144.5" y="402.9707">dodajBonus(osoblje : Osoblje, iznos : double) : void</text><ellipse cx="1135.5" cy="416.3516" fill="#84BE84" rx="3" ry="3" style="stroke:#038048;stroke-width:1.0;"/><text fill="#000000" font-family="sans-serif" font-size="14" lengthAdjust="spacing" textLength="321" x="1144.5" y="420.5801">umanjiPlatu(osoblje : Osoblje, iznos : double) : void</text></g><!--class Gost--><g id="elem_Gost"><rect codeLine="77" fill="#F1F1F1" height="171.2656" id="Gost" rx="2.5" ry="2.5" style="stroke:#181818;stroke-width:0.5;" width="367" x="1077" y="16"/><ellipse cx="1241.25" cy="32" fill="#ADD1B2" rx="11" ry="11" style="stroke:#181818;stroke-width:1.0;"/><path d="M1244.0156,27.875 Q1244.1719,27.6563 1244.3594,27.5469 Q1244.5469,27.4375 1244.7656,27.4375 Q1245.1406,27.4375 1245.375,27.7031 Q1245.6094,27.9531 1245.6094,28.5625 L1245.6094,30.0156 Q1245.6094,30.625 1245.375,30.8906 Q1245.1406,31.1563 1244.7656,31.1563 Q1244.4219,31.1563 1244.2188,30.9531 Q1244.0156,30.7656 1243.9063,30.25 Q1243.8594,29.8906 1243.6719,29.7031 Q1243.3438,29.3281 1242.7344,29.1094 Q1242.125,28.8906 1241.5,28.8906 Q1240.7344,28.8906 1240.0938,29.2188 Q1239.4688,29.5469 1238.9688,30.2969 Q1238.4844,31.0469 1238.4844,32.0781 L1238.4844,33.1719 Q1238.4844,34.4063 1239.375,35.2344 Q1240.2656,36.0469 1241.8594,36.0469 Q1242.7969,36.0469 1243.4531,35.7969 Q1243.8438,35.6406 1244.2656,35.2031 Q1244.5313,34.9375 1244.6719,34.8594 Q1244.8281,34.7813 1245.0313,34.7813 Q1245.3594,34.7813 1245.6094,35.0469 Q1245.875,35.2969 1245.875,35.6406 Q1245.875,35.9844 1245.5313,36.3906 Q1245.0313,36.9688 1244.2344,37.2969 Q1243.1563,37.75 1241.8594,37.75 Q1240.3438,37.75 1239.1406,37.125 Q1238.1563,36.625 1237.4688,35.5625 Q1236.7813,34.4844 1236.7813,33.2031 L1236.7813,32.0469 Q1236.7813,30.7188 1237.3906,29.5781 Q1238.0156,28.4219 1239.1094,27.8125 Q1240.2031,27.1875 1241.4375,27.1875 Q1242.1719,27.1875 1242.8125,27.3594 Q1243.4688,27.5156 1244.0156,27.875 Z " fill="#000000"/><text fill="#000000" font-family="sans-serif" font-size="14" lengthAdjust="spacing" textLength="30" x="1261.75" y="37.7285">Gost</text><line style="stroke:#181818;stroke-width:0.5;" x1="1078" x2="1443" y1="48" y2="48"/><rect fill="none" height="6" style="stroke:#C82930;stroke-width:1.0;" width="6" x="1085" y="59.3047"/><text fill="#000000" font-family="sans-serif" font-size="14" lengthAdjust="spacing" textLength="114" x="1097" y="66.5332">ime_gosta : String</text><rect fill="none" height="6" style="stroke:#C82930;stroke-width:1.0;" width="6" x="1085" y="76.9141"/><text fill="#000000" font-family="sans-serif" font-size="14" lengthAdjust="spacing" textLength="89" x="1097" y="84.1426">broj_stola : int</text><rect fill="none" height="6" style="stroke:#C82930;stroke-width:1.0;" width="6" x="1085" y="94.5234"/><text fill="#000000" font-family="sans-serif" font-size="14" lengthAdjust="spacing" textLength="153" x="1097" y="101.752">narud&#382;bina : Narud&#382;bina</text><rect fill="none" height="6" style="stroke:#C82930;stroke-width:1.0;" width="6" x="1085" y="112.1328"/><text fill="#000000" font-family="sans-serif" font-size="14" lengthAdjust="spacing" textLength="89" x="1097" y="119.3613">ra&#269;un : Ra&#269;un</text><line style="stroke:#181818;stroke-width:0.5;" x1="1078" x2="1443" y1="126.4375" y2="126.4375"/><ellipse cx="1088" cy="140.7422" fill="#84BE84" rx="3" ry="3" style="stroke:#038048;stroke-width:1.0;"/><text fill="#000000" font-family="sans-serif" font-size="14" lengthAdjust="spacing" textLength="341" x="1097" y="144.9707">napraviNarud&#382;binu(lista_jela : List&lt;Jelo&gt;) : Narud&#382;bina</text><ellipse cx="1088" cy="158.3516" fill="#84BE84" rx="3" ry="3" style="stroke:#038048;stroke-width:1.0;"/><text fill="#000000" font-family="sans-serif" font-size="14" lengthAdjust="spacing" textLength="115" x="1097" y="162.5801">platiRacun() : void</text><ellipse cx="1088" cy="175.9609" fill="#84BE84" rx="3" ry="3" style="stroke:#038048;stroke-width:1.0;"/><text fill="#000000" font-family="sans-serif" font-size="14" lengthAdjust="spacing" textLength="191" x="1097" y="180.1895">oceniUslugu(ocena : int) : void</text></g><!--link Restoran to Sto--><g id="link_Restoran_Sto"><path codeLine="88" d="M193.5,178.78 C193.5,218.26 193.5,265.35 193.5,300.14 " fill="none" id="Restoran-Sto" style="stroke:#181818;stroke-width:1.0;"/><text fill="#000000" font-family="sans-serif" font-size="13" lengthAdjust="spacing" textLength="59" x="194.5" y="240.4951">agregacija</text><text fill="#000000" font-family="sans-serif" font-size="13" lengthAdjust="spacing" textLength="7" x="186.1992" y="199.6337">1</text><text fill="#000000" font-family="sans-serif" font-size="13" lengthAdjust="spacing" textLength="20" x="172.1563" y="289.761">0..*</text></g><!--reverse link Sto to Narud?bina--><g id="link_Sto_Narud&#382;bina"><path codeLine="89" d="M193.5,413.62 C193.5,444 193.5,471.48 193.5,505.76 " fill="none" id="Sto-backto-Narud&#382;bina" style="stroke:#181818;stroke-width:1.0;"/><polygon fill="#181818" points="193.5,401.62,189.5,407.62,193.5,413.62,197.5,407.62,193.5,401.62" style="stroke:#181818;stroke-width:1.0;"/><text fill="#000000" font-family="sans-serif" font-size="13" lengthAdjust="spacing" textLength="69" x="194.5" y="472.4951">kompozicija</text><text fill="#000000" font-family="sans-serif" font-size="13" lengthAdjust="spacing" textLength="7" x="186.0516" y="422.6593">1</text><text fill="#000000" font-family="sans-serif" font-size="13" lengthAdjust="spacing" textLength="22" x="170.4516" y="495.1638">0..1</text></g><!--link Narud?bina to Jelo--><g id="link_Narud&#382;bina_Jelo"><path codeLine="90" d="M156.82,660.24 C143.06,688.85 127.78,720.6 115.46,746.2 " fill="none" id="Narud&#382;bina-Jelo" style="stroke:#181818;stroke-width:1.0;"/><text fill="#000000" font-family="sans-serif" font-size="13" lengthAdjust="spacing" textLength="59" x="143.5" y="704.4951">agregacija</text><text fill="#000000" font-family="sans-serif" font-size="13" lengthAdjust="spacing" textLength="7" x="146.367" y="681.0903">1</text><text fill="#000000" font-family="sans-serif" font-size="13" lengthAdjust="spacing" textLength="20" x="97.4231" y="735.4632">0..*</text></g><!--link Narud?bina to Ra?un--><g id="link_Narud&#382;bina_Ra&#269;un"><path codeLine="91" d="M230.18,660.24 C242.46,685.76 255.94,713.79 267.46,737.71 " fill="none" id="Narud&#382;bina-Ra&#269;un" style="stroke:#181818;stroke-width:1.0;"/><text fill="#000000" font-family="sans-serif" font-size="13" lengthAdjust="spacing" textLength="65" x="252.5" y="704.4951">povezanost</text><text fill="#000000" font-family="sans-serif" font-size="13" lengthAdjust="spacing" textLength="7" x="226.0314" y="681.0903">1</text><text fill="#000000" font-family="sans-serif" font-size="13" lengthAdjust="spacing" textLength="7" x="256.6161" y="726.9989">1</text></g><!--reverse link Osoblje to Konobar--><g id="link_Osoblje_Konobar"><path codeLine="92" d="M772.4337,196.0149 C709.2337,237.6049 650.78,276.09 600.11,309.45 " fill="none" id="Osoblje-backto-Konobar" style="stroke:#181818;stroke-width:1.0;"/><polygon fill="none" points="787.47,186.12,769.1354,191.0028,775.732,201.027,787.47,186.12" style="stroke:#181818;stroke-width:1.0;"/></g><!--reverse link Osoblje to Kuvar--><g id="link_Osoblje_Kuvar"><path codeLine="93" d="M914.5,214.07 C914.5,253.22 914.5,278.66 914.5,309.39 " fill="none" id="Osoblje-backto-Kuvar" style="stroke:#181818;stroke-width:1.0;"/><polygon fill="none" points="914.5,196.07,908.5,214.07,920.5,214.07,914.5,196.07" style="stroke:#181818;stroke-width:1.0;"/></g><!--reverse link Osoblje to Administrator--><g id="link_Osoblje_Administrator"><path codeLine="94" d="M1056.925,194.3765 C1062.915,198.2065 1053.69,192.3 1059.5,196 C1099.55,221.5 1143.41,249.16 1182.82,273.9 " fill="none" id="Osoblje-backto-Administrator" style="stroke:#181818;stroke-width:1.0;"/><polygon fill="none" points="1041.76,184.68,1053.6929,199.4315,1060.1572,189.3215,1041.76,184.68" style="stroke:#181818;stroke-width:1.0;"/></g><!--SRC=[dLLBRjim4Dth58GtSU8wQBT6K21jWA19aHOnsaKtmjWYLCeIAL2a5cfxX2vwX5mag_XU6KeKIz8VfFN6vCoGCtppvkc4N9VGSY2R4XeWzxHHGW9FrhXjt9RyI0Z-veH3nzfKMZEG1LagoNXktILh5AJeB4Lhd1znVx5KuctW5urObONpV-gtT8YPaKnaKE2PwIa6j89bljt6nhwSSYhPze5zw5gwVL1Gz16sjbz9Sa9k-_VXlVPfk7AlMabHz5MRcXXNreorAjs4RvoHMegAShRidLCkMfP6WQuuB_4TI9rj7rUCWot0iuI5SEUWGJa3U0Kj7N8tj7JGweskEQHhsdSb4tfLKXyv4pl5mmAzPXqXo3e9JxyrX-8zvRf7BxYZWrOYld-BrjDzppGts_UPPSYRc2txQgqbsy3saLrH1MEZTzjutzSwahJVX1ZQnmJu6OI0fwpZeWdJpac63QpGU0MAnfmQxe-UUratIi96kScnp4nWPHnhHORYhDbLnoeQmr2BZgrPiJDCTGaAuaARYiPZTnGqZm7l14V2Xi-FMA0hu0NxZ8dryS1Q81TRjgmCMSAQGfpCG6Q8P8yIHPeve0PyRWKNAv0Edu7at9iDotLlN0Aby1aP7lDE-3NPlBhToOemrf9MnrBQ4FQVMI-pYd5c28Bw6MNl044jKLc-7nF6RpPAv5DXgRKO8Orw95Ij6yN-uGHceALjwaxiAtAWppiKstFqnQnx-LbF3gwHZHPXi_I7BSqDK-FHEY3u1pjf_OEgeClgpr0-XrhYBFYKE23LftjkdVLpZYApzZN6TX0LadrfIfqZC5OjiTeGWg-qCtDLqQS_Uj2Yn7ss9sycP3udazVdvsUJ_fEt891BceCHdCGOJCYPZS7bNG31HbIZEYM-9xptPlYgU1VlYyM_-n6_MhIq0sxQDWhanKyCiceG6SseXgPWZf9d]--></g></svg>