<?xml version="1.0" encoding="us-ascii" standalone="no"?><svg xmlns="http://www.w3.org/2000/svg" xmlns:xlink="http://www.w3.org/1999/xlink" contentStyleType="text/css" height="1052px" preserveAspectRatio="none" style="width:376px;height:1052px;background:#FFFFFF;" version="1.1" viewBox="0 0 376 1052" width="376px" zoomAndPan="magnify"><defs/><g><!--cluster Sistem--><g id="cluster_Sistem"><rect fill="none" height="1039" rx="2.5" ry="2.5" style="stroke:#181818;stroke-width:1.0;" width="237" x="133" y="7"/><text fill="#000000" font-family="sans-serif" font-size="14" font-weight="bold" lengthAdjust="spacing" textLength="47" x="228" y="23.5332">Sistem</text></g><g id="elem_UC1"><ellipse cx="251.7363" cy="61.2473" fill="#F1F1F1" rx="76.7363" ry="17.7473" style="stroke:#181818;stroke-width:0.5;"/><text fill="#000000" font-family="sans-serif" font-size="14" lengthAdjust="spacing" textLength="106" x="196.2006" y="65.6555">Unos narud&#382;bina</text></g><g id="elem_UC2"><ellipse cx="251.7427" cy="131.1485" fill="#F1F1F1" rx="73.7427" ry="17.1485" style="stroke:#181818;stroke-width:0.5;"/><text fill="#000000" font-family="sans-serif" font-size="14" lengthAdjust="spacing" textLength="98" x="199.7427" y="135.6651">Pregled stolova</text></g><g id="elem_UC3"><ellipse cx="251.6203" cy="200.8241" fill="#F1F1F1" rx="77.1203" ry="17.8241" style="stroke:#181818;stroke-width:0.5;"/><text fill="#000000" font-family="sans-serif" font-size="14" lengthAdjust="spacing" textLength="107" x="195.7783" y="205.1856">Izdavanje ra&#269;una</text></g><g id="elem_UC4"><ellipse cx="251.5873" cy="273.1175" fill="#F1F1F1" rx="83.5873" ry="19.1175" style="stroke:#181818;stroke-width:0.5;"/><text fill="#000000" font-family="sans-serif" font-size="14" lengthAdjust="spacing" textLength="123" x="190.0873" y="276.846">Pregled narud&#382;bina</text></g><g id="elem_UC5"><ellipse cx="251.3297" cy="348.0659" fill="#F1F1F1" rx="90.8297" ry="20.5659" style="stroke:#181818;stroke-width:0.5;"/><text fill="#000000" font-family="sans-serif" font-size="14" lengthAdjust="spacing" textLength="140" x="181.3297" y="351.7945">Upravljanje jelovnikom</text></g><g id="elem_UC6"><ellipse cx="251.7113" cy="420.1423" fill="#F1F1F1" rx="71.2113" ry="16.6423" style="stroke:#181818;stroke-width:0.5;"/><text fill="#000000" font-family="sans-serif" font-size="14" lengthAdjust="spacing" textLength="91" x="203.2113" y="424.6589">Dodela smena</text></g><g id="elem_UC7"><ellipse cx="251.4202" cy="490.784" fill="#F1F1F1" rx="81.9202" ry="18.784" style="stroke:#181818;stroke-width:0.5;"/><text fill="#000000" font-family="sans-serif" font-size="14" lengthAdjust="spacing" textLength="119" x="191.7512" y="494.5629">Dodavanje bonusa</text></g><g id="elem_UC8"><ellipse cx="251.6819" cy="563.1364" fill="#F1F1F1" rx="78.6819" ry="18.1364" style="stroke:#181818;stroke-width:0.5;"/><text fill="#000000" font-family="sans-serif" font-size="14" lengthAdjust="spacing" textLength="111" x="194.5947" y="567.3083">Umanjivanje plate</text></g><g id="elem_UC9"><ellipse cx="251.4659" cy="636.8932" fill="#F1F1F1" rx="89.9659" ry="20.3932" style="stroke:#181818;stroke-width:0.5;"/><text fill="#000000" font-family="sans-serif" font-size="14" lengthAdjust="spacing" textLength="138" x="182.4659" y="640.6217">Zapo&#353;ljavanje radnika</text></g><g id="elem_UC10"><ellipse cx="251.3351" cy="711.867" fill="#F1F1F1" rx="82.3351" ry="18.867" style="stroke:#181818;stroke-width:0.5;"/><text fill="#000000" font-family="sans-serif" font-size="14" lengthAdjust="spacing" textLength="120" x="191.3351" y="715.5955">Otpu&#353;tanje radnika</text></g><g id="elem_UC11"><ellipse cx="251.3193" cy="785.9639" fill="#F1F1F1" rx="87.8193" ry="19.9639" style="stroke:#181818;stroke-width:0.5;"/><text fill="#000000" font-family="sans-serif" font-size="14" lengthAdjust="spacing" textLength="133" x="184.8193" y="789.6924">Upravljanje stolovima</text></g><g id="elem_UC12"><ellipse cx="251.5408" cy="861.2082" fill="#F1F1F1" rx="86.5408" ry="19.7082" style="stroke:#181818;stroke-width:0.5;"/><text fill="#000000" font-family="sans-serif" font-size="14" lengthAdjust="spacing" textLength="130" x="186.5408" y="864.9367">Naru&#269;ivanje jela/pi&#263;a</text></g><g id="elem_UC13"><ellipse cx="251.3041" cy="931.8608" fill="#F1F1F1" rx="69.8041" ry="16.3608" style="stroke:#181818;stroke-width:0.5;"/><text fill="#000000" font-family="sans-serif" font-size="14" lengthAdjust="spacing" textLength="87" x="204.8041" y="936.3774">Prijem ra&#269;una</text></g><g id="elem_UC14"><ellipse cx="251.2928" cy="1006.8586" fill="#F1F1F1" rx="102.2928" ry="22.8586" style="stroke:#181818;stroke-width:0.5;"/><text fill="#000000" font-family="sans-serif" font-size="14" lengthAdjust="spacing" textLength="166" x="168.2928" y="1010.5871">Upisivanje u knjigu utisaka</text></g><!--entity Konobar--><g id="elem_Konobar"><ellipse cx="47.5" cy="100.5" fill="#F1F1F1" rx="8" ry="8" style="stroke:#181818;stroke-width:0.5;"/><path d="M47.5,108.5 L47.5,135.5 M34.5,116.5 L60.5,116.5 M47.5,135.5 L34.5,150.5 M47.5,135.5 L60.5,150.5 " fill="none" style="stroke:#181818;stroke-width:0.5;"/><text fill="#000000" font-family="sans-serif" font-size="14" lengthAdjust="spacing" textLength="54" x="20.5" y="166.5332">Konobar</text></g><!--entity Kuvar--><g id="elem_Kuvar"><ellipse cx="47.5" cy="242.5" fill="#F1F1F1" rx="8" ry="8" style="stroke:#181818;stroke-width:0.5;"/><path d="M47.5,250.5 L47.5,277.5 M34.5,258.5 L60.5,258.5 M47.5,277.5 L34.5,292.5 M47.5,277.5 L60.5,292.5 " fill="none" style="stroke:#181818;stroke-width:0.5;"/><text fill="#000000" font-family="sans-serif" font-size="14" lengthAdjust="spacing" textLength="37" x="29" y="308.5332">Kuvar</text></g><!--entity Administrator--><g id="elem_Administrator"><ellipse cx="47.5" cy="532.5" fill="#F1F1F1" rx="8" ry="8" style="stroke:#181818;stroke-width:0.5;"/><path d="M47.5,540.5 L47.5,567.5 M34.5,548.5 L60.5,548.5 M47.5,567.5 L34.5,582.5 M47.5,567.5 L60.5,582.5 " fill="none" style="stroke:#181818;stroke-width:0.5;"/><text fill="#000000" font-family="sans-serif" font-size="14" lengthAdjust="spacing" textLength="83" x="6" y="598.5332">Administrator</text></g><!--entity Gost--><g id="elem_Gost"><ellipse cx="47.5" cy="901.5" fill="#F1F1F1" rx="8" ry="8" style="stroke:#181818;stroke-width:0.5;"/><path d="M47.5,909.5 L47.5,936.5 M34.5,917.5 L60.5,917.5 M47.5,936.5 L34.5,951.5 M47.5,936.5 L60.5,951.5 " fill="none" style="stroke:#181818;stroke-width:0.5;"/><text fill="#000000" font-family="sans-serif" font-size="14" lengthAdjust="spacing" textLength="30" x="32.5" y="967.5332">Gost</text></g><!--link Konobar to UC1--><g id="link_Konobar_UC1"><path d="M74.62,117.81 C89.21,110.76 107.85,102.27 125,96 C148.69,87.34 169.7474,81.1065 192.5174,75.1165 " fill="none" id="Konobar-to-UC1" style="stroke:#181818;stroke-width:1.0;"/><polygon fill="#181818" points="198.32,73.59,188.5985,72.0113,193.4845,74.862,190.6338,79.7481,198.32,73.59" style="stroke:#181818;stroke-width:1.0;"/></g><!--link Konobar to UC2--><g id="link_Konobar_UC2"><path d="M74.91,131 C101,131 136.1,131 171.98,131 " fill="none" id="Konobar-to-UC2" style="stroke:#181818;stroke-width:1.0;"/><polygon fill="#181818" points="177.98,131,168.98,127,172.98,131,168.98,135,177.98,131" style="stroke:#181818;stroke-width:1.0;"/></g><!--link Konobar to UC3--><g id="link_Konobar_UC3"><path d="M74.68,143.72 C89.29,150.54 107.93,158.79 125,165 C148.86,173.68 170.0717,180.0704 192.9017,186.3004 " fill="none" id="Konobar-to-UC3" style="stroke:#181818;stroke-width:1.0;"/><polygon fill="#181818" points="198.69,187.88,191.0605,181.6518,193.8664,186.5637,188.9544,189.3696,198.69,187.88" style="stroke:#181818;stroke-width:1.0;"/></g><!--link Kuvar to UC4--><g id="link_Kuvar_UC4"><path d="M66.07,273 C88.82,273 124.03,273 161.73,273 " fill="none" id="Kuvar-to-UC4" style="stroke:#181818;stroke-width:1.0;"/><polygon fill="#181818" points="167.73,273,158.73,269,162.73,273,158.73,277,167.73,273" style="stroke:#181818;stroke-width:1.0;"/></g><!--link Administrator to UC5--><g id="link_Administrator_UC5"><path d="M55.41,523.91 C64.52,483.77 84.41,422.21 125,386 C139.1,373.42 151.5219,366.7959 169.6119,361.1559 " fill="none" id="Administrator-to-UC5" style="stroke:#181818;stroke-width:1.0;"/><polygon fill="#181818" points="175.34,359.37,165.5573,358.2301,170.5666,360.8582,167.9385,365.8675,175.34,359.37" style="stroke:#181818;stroke-width:1.0;"/></g><!--link Administrator to UC6--><g id="link_Administrator_UC6"><path d="M67.08,523.92 C80.16,500.39 99.83,471.66 125,454 C143.67,440.91 161.2919,434.1914 182.8719,429.2414 " fill="none" id="Administrator-to-UC6" style="stroke:#181818;stroke-width:1.0;"/><polygon fill="#181818" points="188.72,427.9,179.0535,426.0134,183.8466,429.0179,180.8421,433.8109,188.72,427.9" style="stroke:#181818;stroke-width:1.0;"/></g><!--link Administrator to UC7--><g id="link_Administrator_UC7"><path d="M89.27,542.34 C100.67,536.96 113.18,531.44 125,527 C147.49,518.55 167.0829,512.504 189.1129,506.474 " fill="none" id="Administrator-to-UC7" style="stroke:#181818;stroke-width:1.0;"/><polygon fill="#181818" points="194.9,504.89,185.1633,503.408,190.0774,506.21,187.2753,511.1241,194.9,504.89" style="stroke:#181818;stroke-width:1.0;"/></g><!--link Administrator to UC8--><g id="link_Administrator_UC8"><path d="M89.38,563 C113.36,563 138.44,563 166.91,563 " fill="none" id="Administrator-to-UC8" style="stroke:#181818;stroke-width:1.0;"/><polygon fill="#181818" points="172.91,563,163.91,559,167.91,563,163.91,567,172.91,563" style="stroke:#181818;stroke-width:1.0;"/></g><!--link Administrator to UC9--><g id="link_Administrator_UC9"><path d="M89.38,582.87 C100.78,588.09 113.27,593.51 125,598 C147.27,606.51 166.5247,612.8503 188.3147,619.4103 " fill="none" id="Administrator-to-UC9" style="stroke:#181818;stroke-width:1.0;"/><polygon fill="#181818" points="194.06,621.14,186.5952,614.7153,189.2723,619.6986,184.289,622.3757,194.06,621.14" style="stroke:#181818;stroke-width:1.0;"/></g><!--link Administrator to UC10--><g id="link_Administrator_UC10"><path d="M66.53,602.14 C79.58,626.39 99.39,656.36 125,675 C142.08,687.43 157.5231,694.1252 177.6431,699.6352 " fill="none" id="Administrator-to-UC10" style="stroke:#181818;stroke-width:1.0;"/><polygon fill="#181818" points="183.43,701.22,175.8061,694.9849,178.6076,699.8993,173.6931,702.7008,183.43,701.22" style="stroke:#181818;stroke-width:1.0;"/></g><!--link Administrator to UC11--><g id="link_Administrator_UC11"><path d="M54.6,602.29 C63.13,644.16 82.64,709.6 125,748 C139.42,761.07 152.4665,767.9143 171.0965,773.5443 " fill="none" id="Administrator-to-UC11" style="stroke:#181818;stroke-width:1.0;"/><polygon fill="#181818" points="176.84,775.28,169.3819,768.8475,172.0538,773.8336,167.0677,776.5055,176.84,775.28" style="stroke:#181818;stroke-width:1.0;"/></g><!--link Gost to UC12--><g id="link_Gost_UC12"><path d="M62.65,925.04 C77.83,917.73 102.77,906.18 125,898 C147.49,889.73 166.9889,883.6314 188.9289,877.3914 " fill="none" id="Gost-to-UC12" style="stroke:#181818;stroke-width:1.0;"/><polygon fill="#181818" points="194.7,875.75,184.9491,874.3646,189.8907,877.1178,187.1376,882.0595,194.7,875.75" style="stroke:#181818;stroke-width:1.0;"/></g><!--link Gost to UC13--><g id="link_Gost_UC13"><path d="M62.7,932 C87.13,932 132.61,932 175.5,932 " fill="none" id="Gost-to-UC13" style="stroke:#181818;stroke-width:1.0;"/><polygon fill="#181818" points="181.5,932,172.5,928,176.5,932,172.5,936,181.5,932" style="stroke:#181818;stroke-width:1.0;"/></g><!--link Gost to UC14--><g id="link_Gost_UC14"><path d="M62.7,938.84 C77.92,946.04 102.89,957.5 125,966 C145.86,974.02 163.3275,980.0448 184.0275,986.6948 " fill="none" id="Gost-to-UC14" style="stroke:#181818;stroke-width:1.0;"/><polygon fill="#181818" points="189.74,988.53,182.3948,981.969,184.9796,987.0007,179.9479,989.5856,189.74,988.53" style="stroke:#181818;stroke-width:1.0;"/></g><!--SRC=[TPFBJiCm44Nt_efHznNaqTS62O64418WeMxOJMjJd2Psv4SM8DQi-X7z4LRjV-6sJf1JarNkpScToNXIiZS3HeBYgtS3b2ksD5mAGd1ff887AUG2LQjiqzrVqueBher2fxnt9xKXv121ObKoU77FMGMV1DnbDLkYPZ2O2wb1eB9q_xFW0WU06kOtIKWzA-OYA6WZIzcqK1f2znyK6nG50uMxZUsoidZMUT6yrrgji2cBOsB1N5t1rxBox2XaRoLb9OAkM9SsFYDyTmifh6wfIQzcvH1-ukeI3VFODCHUiPRxhUkj_LxgUciZPo7xP6gxtve8c5p-_y6dIVEgOtidykYcjzluJjrqyABck- -EJlipvuKx-_1SagnVdciVQ67jnh2oO0tN-DTmJhu8yMi8m-7LSLD2dVPqvbuuRAgNEI71idfx57N7KNSITQTHTnPrtU2ZTaB8uQzfPHgeB53vBm00]--></g></svg>